<svg width="10" height="10" viewBox="0 0 10 10" fill="none" xmlns="http://www.w3.org/2000/svg">
<path d="M4.2435 1.0124C4.59438 1.06972 4.91334 1.24895 5.14348 1.51811C5.37362 1.78727 5.49998 2.12887 5.5 2.48195V3.47489H2.5V2.48195C2.5 1.96662 2.764 1.51185 3.165 1.24475C3.02099 1.11743 2.84298 1.03416 2.65241 1.00498C2.46184 0.975799 2.26684 1.00195 2.09089 1.08028C1.91494 1.15861 1.76555 1.28577 1.66072 1.44647C1.55588 1.60716 1.50007 1.79452 1.5 1.98598V4.9648H9.5C9.63261 4.9648 9.75979 5.01711 9.85355 5.11021C9.94732 5.20332 10 5.3296 10 5.46127C10 5.59294 9.94732 5.71922 9.85355 5.81233C9.75979 5.90543 9.63261 5.95774 9.5 5.95774V6.45421C9.49997 7.07028 9.30764 7.67119 8.94947 8.17424C8.5913 8.67729 8.08491 9.05775 7.5 9.26324V9.50353C7.5 9.6352 7.44732 9.76148 7.35355 9.85459C7.25979 9.94769 7.13261 10 7 10C6.86739 10 6.74021 9.94769 6.64645 9.85459C6.55268 9.76148 6.5 9.6352 6.5 9.50353V9.43303H3.5V9.50353C3.5 9.6352 3.44732 9.76148 3.35355 9.85459C3.25979 9.94769 3.13261 10 3 10C2.86739 10 2.74021 9.94769 2.64645 9.85459C2.55268 9.76148 2.5 9.6352 2.5 9.50353V9.26324C1.91509 9.05775 1.4087 8.67729 1.05053 8.17424C0.692362 7.67119 0.500028 7.07028 0.5 6.45421V5.95774C0.367392 5.95774 0.240215 5.90543 0.146447 5.81233C0.0526784 5.71922 0 5.59294 0 5.46127C0 5.3296 0.0526784 5.20332 0.146447 5.11021C0.240215 5.01711 0.367392 4.9648 0.5 4.9648V1.98598C0.499978 1.54684 0.646546 1.12009 0.916775 0.772462C1.187 0.424837 1.56565 0.175953 1.99349 0.0647403C2.42133 -0.0464718 2.87423 -0.0137391 3.28134 0.157818C3.68845 0.329376 4.02682 0.630081 4.2435 1.0129V1.0124Z" fill="#A7A7A7"/>
</svg>
