<svg width="12" height="10" viewBox="0 0 12 10" fill="none" xmlns="http://www.w3.org/2000/svg">
<path d="M10.7143 4.28125C10.4441 4.15546 10.1522 4.09064 9.85714 4.09091H2.14286C1.84781 4.09061 1.55593 4.15533 1.28571 4.28097C0.903804 4.4581 0.578822 4.74941 0.35049 5.11927C0.122157 5.48914 0.000364941 5.92154 0 6.36364V9.54545C0 9.66601 0.0451529 9.78162 0.125526 9.86687C0.205898 9.95211 0.314907 10 0.428571 10C0.542236 10 0.651244 9.95211 0.731617 9.86687C0.81199 9.78162 0.857143 9.66601 0.857143 9.54545V9.31818C0.857838 9.25813 0.880637 9.20075 0.920674 9.15829C0.960711 9.11583 1.01481 9.09165 1.07143 9.09091H10.9286C10.9852 9.09165 11.0393 9.11583 11.0793 9.15829C11.1194 9.20075 11.1422 9.25813 11.1429 9.31818V9.54545C11.1429 9.66601 11.188 9.78162 11.2684 9.86687C11.3488 9.95211 11.4578 10 11.5714 10C11.6851 10 11.7941 9.95211 11.8745 9.86687C11.9548 9.78162 12 9.66601 12 9.54545V6.36364C11.9996 5.92159 11.8778 5.48925 11.6494 5.11944C11.4211 4.74963 11.0962 4.45837 10.7143 4.28125V4.28125ZM9.21429 0H2.78571C2.38789 0 2.00636 0.167613 1.72505 0.465967C1.44375 0.76432 1.28571 1.16897 1.28571 1.59091V3.63636C1.28573 3.65397 1.2896 3.67134 1.29702 3.68709C1.30444 3.70284 1.31522 3.71655 1.32849 3.72713C1.34176 3.73771 1.35717 3.74487 1.3735 3.74805C1.38983 3.75123 1.40664 3.75034 1.42259 3.74545C1.65655 3.67288 1.89909 3.63614 2.14286 3.63636H2.25616C2.28261 3.63654 2.30818 3.62634 2.32796 3.60772C2.34774 3.5891 2.36033 3.56338 2.3633 3.53551C2.38668 3.31341 2.48637 3.10822 2.64335 2.95913C2.80032 2.81004 3.00357 2.7275 3.21429 2.72727H4.71429C4.92514 2.72729 5.12859 2.80974 5.28573 2.95884C5.44287 3.10795 5.54268 3.31326 5.56607 3.53551C5.56905 3.56338 5.58163 3.5891 5.60141 3.60772C5.62119 3.62634 5.64677 3.63654 5.67321 3.63636H6.32839C6.35484 3.63654 6.38041 3.62634 6.40019 3.60772C6.41997 3.5891 6.43256 3.56338 6.43554 3.53551C6.4589 3.31355 6.55848 3.10848 6.71528 2.95941C6.87208 2.81034 7.07514 2.72771 7.28571 2.72727H8.78571C8.99657 2.72729 9.20001 2.80974 9.35716 2.95884C9.5143 3.10795 9.61411 3.31326 9.6375 3.53551C9.64047 3.56338 9.65306 3.5891 9.67284 3.60772C9.69262 3.62634 9.7182 3.63654 9.74464 3.63636H9.85714C10.1009 3.63624 10.3435 3.67307 10.5774 3.74574C10.5934 3.75063 10.6102 3.75152 10.6266 3.74832C10.6429 3.74512 10.6583 3.73794 10.6716 3.72733C10.6849 3.71671 10.6957 3.70297 10.7031 3.68718C10.7105 3.6714 10.7143 3.654 10.7143 3.63636V1.59091C10.7143 1.16897 10.5563 0.76432 10.2749 0.465967C9.99364 0.167613 9.61211 0 9.21429 0Z" fill="#A7A7A7"/>
</svg>
