<svg width="21" height="16" viewBox="0 0 21 16" fill="none" xmlns="http://www.w3.org/2000/svg">
<path d="M18.5535 5.90423L17.1509 1.62946C16.8311 0.654575 15.8685 0 14.7559 0H5.36621C4.25354 0 3.29101 0.654576 2.97118 1.62946L1.56852 5.90423C0.682826 6.25614 0.0610352 7.06201 0.0610352 8V12.5714C0.0610352 13.2026 0.620728 13.7143 1.31104 13.7143H1.31111L1.31104 14.8571C1.31104 15.4883 1.87065 16 2.56103 16H3.81111C4.50142 16 5.06111 15.4883 5.06111 14.8571L5.06058 13.7143H15.061L15.061 14.8571C15.061 15.4883 15.6206 16 16.311 16H17.561C18.2514 16 18.811 15.4883 18.811 14.8571V13.7144L18.8106 13.7143H18.811C19.5013 13.7143 20.061 13.2026 20.061 12.5714V8C20.061 7.06201 19.4392 6.25613 18.5535 5.90423L18.5535 5.90423ZM5.36617 2.28571H14.7558L15.8808 5.71429H4.24114L5.36617 2.28571H5.36617ZM5.061 10.8571C4.37061 10.8571 3.811 10.3454 3.811 9.71429C3.811 9.08308 4.37061 8.57143 5.061 8.57143C5.75138 8.57143 6.311 9.08308 6.311 9.71429C6.311 10.3454 5.75138 10.8571 5.061 10.8571ZM15.061 10.8571C14.3706 10.8571 13.811 10.3454 13.811 9.71429C13.811 9.08308 14.3706 8.57143 15.061 8.57143C15.7514 8.57143 16.311 9.08308 16.311 9.71429C16.311 10.3454 15.7514 10.8571 15.061 10.8571Z" fill="#AE9579"/>
</svg>
