<svg width="140" height="140" viewBox="0 0 140 140" fill="none" xmlns="http://www.w3.org/2000/svg">
<path d="M70 0C31.4005 0 0 31.4005 0 70C0 108.6 31.4005 140 70 140C108.6 140 140 108.6 140 70C140 31.4005 108.6 0 70 0Z" fill="#8FD14F"/>
<path d="M105.479 55.1661L67.5616 93.0821C66.4241 94.2196 64.9308 94.7921 63.4376 94.7921C61.9444 94.7921 60.4512 94.2196 59.3136 93.0821L40.3557 74.1241C38.0742 71.8437 38.0742 68.1566 40.3557 65.8761C42.6361 63.5946 46.3221 63.5946 48.6036 65.8761L63.4376 80.7101L97.2307 46.9182C99.5111 44.6367 103.197 44.6367 105.479 46.9182C107.759 49.1986 107.759 52.8846 105.479 55.1661Z" fill="#FAFAFA"/>
</svg>
