<svg width="12" height="12" viewBox="0 0 12 12" fill="none" xmlns="http://www.w3.org/2000/svg">
<path fill-rule="evenodd" clip-rule="evenodd" d="M6.00012 -0.000183105C2.69075 -0.000183105 0.00012207 2.69044 0.00012207 5.99982C0.00012207 9.30919 2.69075 11.9998 6.00012 11.9998C9.3095 11.9998 12.0001 9.30919 12.0001 5.99982C12.0001 2.69044 9.3095 -0.000183105 6.00012 -0.000183105Z" fill="#4BAE4F"/>
<path fill-rule="evenodd" clip-rule="evenodd" d="M8.90149 3.97677C9.0468 4.12208 9.0468 4.36115 8.90149 4.50646L5.38586 8.02208C5.31321 8.09474 5.21711 8.13224 5.12102 8.13224C5.02493 8.13224 4.92883 8.09474 4.85618 8.02208L3.09836 6.26427C2.95305 6.11896 2.95305 5.87989 3.09836 5.73458C3.24368 5.58927 3.48274 5.58927 3.62805 5.73458L5.12102 7.22755L8.3718 3.97677C8.51711 3.82911 8.75618 3.82911 8.90149 3.97677Z" fill="white"/>
</svg>
