<svg width="62" height="62" viewBox="0 0 62 62" fill="none" xmlns="http://www.w3.org/2000/svg">
<path d="M49.6484 1.06348V12.1094H60.6935L49.6484 1.06348Z" fill="#AE9579"/>
<path d="M47.832 15.7422C46.8289 15.7422 46.0156 14.9289 46.0156 13.9258V0H19.9805C16.9758 0 14.5312 2.44452 14.5312 5.44922V25.7553C15.1297 25.7011 15.7353 25.6719 16.3477 25.6719C22.5389 25.6719 28.0813 28.5026 31.7491 32.9375H51.4648C52.468 32.9375 53.2812 33.7508 53.2812 34.7539C53.2812 35.757 52.468 36.5703 51.4648 36.5703H34.1421C35.2775 38.7858 36.0096 41.2403 36.2447 43.8359H51.4648C52.468 43.8359 53.2812 44.6492 53.2812 45.6523C53.2812 46.6555 52.468 47.4688 51.4648 47.4688H36.2447C35.7015 53.4676 32.4964 58.7094 27.8223 62H56.3086C59.3133 62 61.7578 59.5555 61.7578 56.5508V15.7422H47.832ZM51.4648 25.6719H24.8242C23.8211 25.6719 23.0078 24.8586 23.0078 23.8555C23.0078 22.8523 23.8211 22.0391 24.8242 22.0391H51.4648C52.468 22.0391 53.2812 22.8523 53.2812 23.8555C53.2812 24.8586 52.468 25.6719 51.4648 25.6719Z" fill="#AE9579"/>
<path d="M16.3477 29.3047C7.33356 29.3047 0 36.6382 0 45.6523C0 54.6664 7.33356 62 16.3477 62C25.3618 62 32.6953 54.6664 32.6953 45.6523C32.6953 36.6382 25.3618 29.3047 16.3477 29.3047ZM21.1914 47.4688H16.3477C15.3445 47.4688 14.5312 46.6555 14.5312 45.6523V38.3867C14.5312 37.3836 15.3445 36.5703 16.3477 36.5703C17.3508 36.5703 18.1641 37.3836 18.1641 38.3867V43.8359H21.1914C22.1945 43.8359 23.0078 44.6492 23.0078 45.6523C23.0078 46.6555 22.1945 47.4688 21.1914 47.4688Z" fill="#AE9579"/>
</svg>
