<svg width="80" height="80" viewBox="0 0 80 80" fill="none" xmlns="http://www.w3.org/2000/svg">
<path d="M64.314 1.37207V15.6249H78.6216L64.314 1.37207Z" fill="#8FD14F"/>
<path d="M61.961 20.3125C60.6615 20.3125 59.608 19.2631 59.608 17.9688V0H25.8826C21.9903 0 18.8237 3.15422 18.8237 7.03125V33.2327C19.5989 33.1627 20.3834 33.125 21.1767 33.125C29.1968 33.125 36.3762 36.7775 41.1274 42.5H66.6669C67.9663 42.5 69.0198 43.5494 69.0198 44.8438C69.0198 46.1381 67.9663 47.1875 66.6669 47.1875H44.2273C45.6981 50.0462 46.6465 53.2133 46.9509 56.5625H66.6669C67.9663 56.5625 69.0198 57.6119 69.0198 58.9062C69.0198 60.2006 67.9663 61.25 66.6669 61.25H46.9509C46.2473 68.9905 42.0954 75.7541 36.0407 80H72.9414C76.8336 80 80.0002 76.8458 80.0002 72.9688V20.3125H61.961ZM66.6669 33.125H32.1571C30.8576 33.125 29.8041 32.0756 29.8041 30.7812C29.8041 29.4869 30.8576 28.4375 32.1571 28.4375H66.6669C67.9663 28.4375 69.0198 29.4869 69.0198 30.7812C69.0198 32.0756 67.9663 33.125 66.6669 33.125Z" fill="#8FD14F"/>
<path d="M21.1765 37.8125C9.49976 37.8125 0 47.2752 0 58.9062C0 70.5373 9.49976 80 21.1765 80C32.8532 80 42.3529 70.5373 42.3529 58.9062C42.3529 47.2752 32.8532 37.8125 21.1765 37.8125ZM27.451 61.25H21.1765C19.877 61.25 18.8235 60.2006 18.8235 58.9062V49.5312C18.8235 48.2369 19.877 47.1875 21.1765 47.1875C22.4759 47.1875 23.5294 48.2369 23.5294 49.5312V56.5625H27.451C28.7504 56.5625 29.8039 57.6119 29.8039 58.9062C29.8039 60.2006 28.7504 61.25 27.451 61.25Z" fill="#8FD14F"/>
</svg>
