<svg width="16" height="14" viewBox="0 0 16 14" fill="none" xmlns="http://www.w3.org/2000/svg">
<path d="M15.9682 6.83C15.359 5.33541 14.2967 4.04056 12.9121 3.105L15.4669 0.705L14.7149 0L0.533122 13.295L1.28514 14L4.00522 11.455C5.21935 12.1184 6.59491 12.4782 8 12.5C9.73844 12.4387 11.4196 11.9012 12.8358 10.954C14.2519 10.0067 15.3409 8.69118 15.9682 7.17C16.0106 7.06015 16.0106 6.93985 15.9682 6.83ZM8 10.25C7.26483 10.2497 6.54905 10.0289 5.95728 9.62L6.9333 8.715C7.33801 8.92288 7.8037 9.00213 8.26052 8.94087C8.71734 8.87961 9.14065 8.68114 9.46696 8.37524C9.79327 8.06933 10.005 7.67248 10.0703 7.24423C10.1357 6.81597 10.0511 6.3794 9.82938 6L10.7947 5.095C11.1705 5.5788 11.3962 6.15058 11.4469 6.74713C11.4976 7.34368 11.3714 7.94176 11.0822 8.47526C10.793 9.00875 10.352 9.45687 9.80805 9.77008C9.2641 10.0833 8.63836 10.2494 8 10.25ZM1.88249 9.905L4.54924 7.405C4.53537 7.27041 4.53002 7.13518 4.53324 7C4.53465 6.13845 4.90035 5.31257 5.55018 4.70336C6.20002 4.09416 7.08099 3.75132 8 3.75C8.14085 3.7507 8.28153 3.75905 8.42135 3.775L10.4374 1.89C9.65276 1.63735 8.82961 1.50564 8 1.5C6.26156 1.56129 4.58038 2.09878 3.16424 3.04604C1.7481 3.99331 0.659078 5.30882 0.031774 6.83C-0.0105913 6.93985 -0.0105913 7.06015 0.031774 7.17C0.441399 8.19132 1.07145 9.12241 1.88249 9.905Z" fill="#A7A7A7"/>
</svg>
