<svg width="11" height="11" viewBox="0 0 11 11" fill="none" xmlns="http://www.w3.org/2000/svg">
<path d="M5.57275 0.848633C2.81129 0.848633 0.572754 3.08725 0.572754 5.84863C0.572754 8.61018 2.81129 10.8486 5.57275 10.8486C8.33422 10.8486 10.5728 8.61018 10.5728 5.84863C10.5728 3.08725 8.33422 0.848633 5.57275 0.848633ZM5.57275 3.34863C5.91795 3.34863 6.19775 3.62848 6.19775 3.97363C6.19775 4.31895 5.91795 4.59863 5.57275 4.59863C5.22756 4.59863 4.94775 4.31895 4.94775 3.97363C4.94775 3.62848 5.22756 3.34863 5.57275 3.34863ZM6.51025 8.34863H4.63525C4.46268 8.34863 4.32275 8.20887 4.32275 8.03613C4.32275 7.86355 4.46268 7.72363 4.63525 7.72363H4.94775V5.84863H4.63525C4.46268 5.84863 4.32275 5.70887 4.32275 5.53613C4.32275 5.36355 4.46268 5.22363 4.63525 5.22363H5.88525C6.05783 5.22363 6.19775 5.36355 6.19775 5.53613V7.72363H6.51025C6.68283 7.72363 6.82275 7.86355 6.82275 8.03613C6.82275 8.20887 6.68283 8.34863 6.51025 8.34863Z" fill="white"/>
</svg>
