<svg width="20" height="16" viewBox="0 0 20 16" fill="none" xmlns="http://www.w3.org/2000/svg">
<path d="M9.53068 3.0625L2.73263 8.66677C2.73263 8.67468 2.73064 8.68632 2.72667 8.70218C2.72277 8.71792 2.7207 8.72935 2.7207 8.73746V14.4124C2.7207 14.6173 2.79561 14.7948 2.9454 14.9444C3.09514 15.094 3.27246 15.1693 3.4774 15.1693H8.01722V10.6292H11.0442V15.1694H15.584C15.7889 15.1694 15.9664 15.0943 16.116 14.9444C16.2658 14.795 16.3409 14.6173 16.3409 14.4124V8.73746C16.3409 8.70599 16.3366 8.68222 16.329 8.66677L9.53068 3.0625Z" fill="#AE9579"/>
<path d="M18.9296 7.38943L16.3406 5.23767V0.413897C16.3406 0.303621 16.3051 0.212932 16.234 0.141955C16.1634 0.0710603 16.0727 0.035613 15.9622 0.035613H13.6922C13.5818 0.035613 13.4912 0.0710603 13.4202 0.141955C13.3493 0.212932 13.3139 0.303662 13.3139 0.413897V2.71934L10.4292 0.307389C10.1772 0.102449 9.87768 0 9.53083 0C9.18402 0 8.8845 0.102449 8.63231 0.307389L0.131377 7.38943C0.0525729 7.45238 0.00938183 7.5371 0.00134822 7.64353C-0.00664399 7.74987 0.0208939 7.84275 0.0840448 7.92152L0.81705 8.79644C0.880201 8.86733 0.962856 8.91069 1.06535 8.92655C1.15997 8.9345 1.25459 8.90684 1.34921 8.84381L9.53058 2.02178L17.712 8.84377C17.7752 8.89876 17.8578 8.92622 17.9603 8.92622H17.9959C18.0982 8.91065 18.1807 8.867 18.2442 8.79627L18.9772 7.92148C19.0403 7.84255 19.0679 7.74983 19.0597 7.64336C19.0516 7.53723 19.0083 7.4525 18.9296 7.38943Z" fill="#AE9579"/>
</svg>
