<svg width="20" height="17" viewBox="0 0 20 17" fill="none" xmlns="http://www.w3.org/2000/svg">
<path d="M7.23001 6.82818C7.95787 6.82818 8.54791 6.23814 8.54791 5.51028C8.54791 4.78243 7.95787 4.19238 7.23001 4.19238C6.50215 4.19238 5.91211 4.78243 5.91211 5.51028C5.91211 6.23814 6.50215 6.82818 7.23001 6.82818Z" fill="#8F8F8F"/>
<path d="M18.0479 10.3602C17.4256 9.77443 16.6385 9.39004 15.7782 9.28021V2.58089C15.7782 1.86703 15.4853 1.22638 15.0277 0.750471C14.5518 0.274563 13.9112 0 13.1973 0H2.58089C1.86703 0 1.22638 0.292867 0.750471 0.750471C0.274563 1.22638 0 1.86703 0 2.58089V11.0191V11.8062V13.5085C0 14.2223 0.292867 14.863 0.750471 15.3389C1.22638 15.8148 1.86703 16.0894 2.58089 16.0894H12.8495C13.5268 16.6385 14.3688 16.9863 15.3023 16.9863C16.3822 16.9863 17.3524 16.547 18.0479 15.8514C18.7435 15.1559 19.1828 14.1857 19.1828 13.1058C19.1828 12.0258 18.7435 11.0557 18.0479 10.3602ZM0.970121 2.58089C0.970121 2.14159 1.15316 1.7389 1.44603 1.46433C1.7389 1.17147 2.14159 0.988425 2.58089 0.988425H13.1973C13.6366 0.988425 14.0393 1.17147 14.3322 1.46433C14.625 1.7572 14.8081 2.15989 14.8081 2.59919V8.31009L12.0991 5.60108C11.916 5.41803 11.6048 5.39973 11.4035 5.60108L7.32167 9.70121L4.55774 6.91898C4.3747 6.73593 4.06353 6.71763 3.86218 6.91898L0.970121 9.84764V2.58089ZM2.56258 15.1559V15.1192C2.12328 15.1192 1.72059 14.9362 1.42773 14.6433C1.15316 14.3505 0.970121 13.9478 0.970121 13.5085V11.8062V11.2388L4.20996 7.98062L6.97389 10.7445C7.15693 10.9276 7.4681 10.9276 7.66945 10.7445L11.7513 6.64441L14.4237 9.33513C14.3688 9.35343 14.3139 9.37173 14.2589 9.39004C14.1857 9.40834 14.1125 9.42665 14.021 9.46326C13.9478 9.48156 13.8746 9.51817 13.8013 9.53647C13.7464 9.55478 13.7098 9.57308 13.6549 9.60969C13.5817 9.6463 13.5268 9.6646 13.4719 9.70121C13.3803 9.75612 13.2888 9.81104 13.1973 9.86595C13.1424 9.90256 13.1058 9.92086 13.0509 9.95747C13.0143 9.97577 12.996 9.99408 12.9594 10.0124C12.7946 10.1222 12.6482 10.2503 12.5201 10.3968C11.8245 11.0923 11.3852 12.0624 11.3852 13.1424C11.3852 13.417 11.4218 13.6732 11.4767 13.9478C11.495 14.021 11.5133 14.0759 11.5316 14.1491C11.5865 14.3322 11.6415 14.5152 11.7147 14.6982V14.7166C11.7879 14.863 11.8611 15.0277 11.9526 15.1559H2.56258ZM17.334 15.1559C16.8032 15.6867 16.0894 15.9978 15.284 15.9978C14.5152 15.9978 13.8013 15.6867 13.2888 15.1925C13.2156 15.1192 13.1424 15.0277 13.0692 14.9545C13.0143 14.8996 12.9594 14.8264 12.9044 14.7715C12.8312 14.6799 12.7763 14.5701 12.7214 14.4603C12.6848 14.3871 12.6482 14.3322 12.6116 14.2589C12.575 14.1674 12.5384 14.0576 12.5201 13.9478C12.5017 13.8746 12.4651 13.783 12.4468 13.7098C12.4102 13.5268 12.3919 13.3254 12.3919 13.1241C12.3919 12.3187 12.7214 11.6048 13.2339 11.074C13.7464 10.5432 14.4786 10.232 15.284 10.232C16.0894 10.232 16.8032 10.5615 17.334 11.074C17.8649 11.6048 18.176 12.3187 18.176 13.1241C18.176 13.9112 17.8466 14.625 17.334 15.1559Z" fill="#8F8F8F"/>
<path d="M15.6318 11.1474C15.5952 11.1108 15.5402 11.0742 15.467 11.0376C15.4121 11.0193 15.3572 11.001 15.3023 11.001C15.284 11.001 15.284 11.001 15.284 11.001C15.2657 11.001 15.2657 11.001 15.2657 11.001C15.2108 11.001 15.1559 11.0193 15.1009 11.0376C15.046 11.0559 14.9911 11.0925 14.9362 11.1474L13.8013 12.2823C13.6183 12.4653 13.6183 12.7765 13.8013 12.9778C13.9844 13.1609 14.2956 13.1609 14.4969 12.9778L14.7898 12.685V14.6984C14.7898 14.973 15.0094 15.1926 15.284 15.1926C15.5585 15.1926 15.7782 14.973 15.7782 14.6984V12.685L16.0711 12.9778C16.2541 13.1609 16.5653 13.1609 16.7666 12.9778C16.9497 12.7948 16.9497 12.4836 16.7666 12.2823L15.6318 11.1474Z" fill="#8F8F8F"/>
</svg>
