<svg width="16" height="21" viewBox="0 0 16 21" fill="none" xmlns="http://www.w3.org/2000/svg">
<path d="M1.82104 20.7143H13.9613C14.9655 20.7143 15.7824 19.8977 15.7824 18.8937V6.06866H11.5333C10.5291 6.06866 9.71222 5.25198 9.71222 4.24806V0H1.82104C0.816879 0 0 0.816679 0 1.8206V18.8937C0 19.8977 0.816879 20.7143 1.82104 20.7143ZM4.2491 8.53658H11.5333C11.8688 8.53658 12.1403 8.80801 12.1403 9.14344C12.1403 9.47888 11.8688 9.75031 11.5333 9.75031H4.2491C3.91358 9.75031 3.64208 9.47888 3.64208 9.14344C3.64208 8.80801 3.91358 8.53658 4.2491 8.53658ZM4.2491 10.964H11.5333C11.8688 10.964 12.1403 11.2355 12.1403 11.5709C12.1403 11.9063 11.8688 12.1778 11.5333 12.1778H4.2491C3.91358 12.1778 3.64208 11.9063 3.64208 11.5709C3.64208 11.2355 3.91358 10.964 4.2491 10.964ZM4.2491 13.3915H11.5333C11.8688 13.3915 12.1403 13.6629 12.1403 13.9984C12.1403 14.3338 11.8688 14.6052 11.5333 14.6052H4.2491C3.91358 14.6052 3.64208 14.3338 3.64208 13.9984C3.64208 13.6629 3.91358 13.3915 4.2491 13.3915ZM4.2491 15.819H9.10521C9.44072 15.819 9.71222 16.0904 9.71222 16.4258C9.71222 16.7613 9.44072 17.0327 9.10521 17.0327H4.2491C3.91358 17.0327 3.64208 16.7613 3.64208 16.4258C3.64208 16.0904 3.91358 15.819 4.2491 15.819Z" fill="#AE9579"/>
<path d="M11.4512 4.93195H15.2913L10.8525 0.493164V4.33325C10.8525 4.66358 11.1209 4.93195 11.4512 4.93195Z" fill="#AE9579"/>
</svg>
