<svg width="16" height="16" viewBox="0 0 16 16" fill="none" xmlns="http://www.w3.org/2000/svg">
<path d="M15.5 8C15.5 12.1421 12.1421 15.5 8 15.5C3.85786 15.5 0.5 12.1421 0.5 8C0.5 3.85786 3.85786 0.5 8 0.5C12.1421 0.5 15.5 3.85786 15.5 8Z" fill="#4BAE4F" stroke="white"/>
<path d="M10.3433 5.15796L6.94757 8.38744L5.65676 7.15955C5.4353 6.94888 5.07623 6.94888 4.85474 7.15955L4.16612 7.81463C3.94463 8.0253 3.94463 8.3669 4.16612 8.57757L6.54651 10.842C6.76797 11.0527 7.12704 11.0527 7.34853 10.842L8.43818 9.80546L11.8338 6.57609C12.0554 6.36542 12.0554 6.02379 11.8339 5.81309L11.1453 5.15805C10.9238 4.94735 10.5648 4.94732 10.3433 5.15796Z" fill="white"/>
</svg>
