<svg width="17" height="18" viewBox="0 0 17 18" fill="none" xmlns="http://www.w3.org/2000/svg">
<path d="M6.84503 9.04225C6.77272 8.9661 6.68951 8.92798 6.59551 8.92798C6.50148 8.92798 6.41827 8.96606 6.346 9.04225L2.74455 12.8375L1.18249 11.1912C1.04506 11.0467 0.882515 10.9741 0.694363 10.9741C0.50621 10.9741 0.343477 11.0467 0.206086 11.1912C0.0686574 11.3362 0 11.5077 0 11.7059V16.8273C0 17.0254 0.0686574 17.1968 0.206086 17.3417C0.343591 17.4864 0.506324 17.5589 0.694363 17.5589H5.55418C5.74222 17.5589 5.90487 17.4864 6.0423 17.3417C6.17966 17.1969 6.24839 17.0255 6.24839 16.8273C6.24839 16.6291 6.17966 16.4576 6.0423 16.3126L4.48024 14.6668L8.0817 10.8713C8.15396 10.7951 8.1901 10.7077 8.1901 10.6085C8.1901 10.5092 8.15389 10.4219 8.0817 10.3454L6.84503 9.04225Z" fill="#AE9579"/>
<path d="M16.4534 0.217178C16.316 0.0723525 16.1533 0 15.9652 0H11.1054C10.9174 0 10.7548 0.0723525 10.6173 0.217178C10.4799 0.361923 10.4113 0.533414 10.4113 0.731573C10.4113 0.929732 10.4799 1.10126 10.6173 1.24597L12.1791 2.8921L8.57768 6.68738C8.50545 6.7637 8.46924 6.85126 8.46924 6.95032C8.46924 7.04938 8.50545 7.13711 8.57768 7.21327L9.8145 8.51649C9.88676 8.59269 9.96975 8.63073 10.0639 8.63073C10.158 8.63073 10.241 8.59269 10.3132 8.51649L13.9149 4.72121L15.4767 6.36722C15.6142 6.512 15.7771 6.58456 15.9651 6.58456C16.1531 6.58456 16.3157 6.512 16.4532 6.36722C16.5905 6.22251 16.6592 6.05098 16.6592 5.85282V0.731453C16.6593 0.533134 16.5911 0.361963 16.4534 0.217178Z" fill="#AE9579"/>
</svg>
