<svg width="12" height="10" viewBox="0 0 12 10" fill="none" xmlns="http://www.w3.org/2000/svg">
<path d="M11.5105 0.546645C11.2751 0.345596 10.9695 0.24624 10.6609 0.270415C10.3523 0.294589 10.0659 0.440316 9.86468 0.675566L4.83835 6.55401L2.13431 4.29664C2.02726 4.20456 1.90297 4.13467 1.76868 4.09104C1.63438 4.04741 1.49276 4.03091 1.35203 4.0425C1.2113 4.0541 1.07428 4.09354 0.948932 4.15856C0.823584 4.22357 0.712409 4.31285 0.62187 4.42121C0.531331 4.52957 0.463234 4.65485 0.421537 4.78976C0.37984 4.92467 0.365375 5.06652 0.378983 5.20707C0.39259 5.34762 0.434 5.48406 0.500803 5.60847C0.567607 5.73287 0.658472 5.84275 0.768117 5.93173L4.39089 8.95661C4.5026 9.04975 4.63229 9.11888 4.77189 9.15971C4.91148 9.20053 5.05799 9.21216 5.20228 9.19388C5.3553 9.18206 5.50449 9.14017 5.64131 9.07062C5.77813 9.00107 5.89989 8.90522 5.99962 8.78856L11.6387 2.19202C11.8395 1.9565 11.9387 1.65093 11.9145 1.34237C11.8903 1.0338 11.7446 0.747445 11.5095 0.546143" fill="#004AAD"/>
</svg>