<svg width="19" height="16" viewBox="0 0 19 16" fill="none" xmlns="http://www.w3.org/2000/svg">
<path d="M11.5476 1.94457C12.0944 1.70198 12.7143 1.5672 13.3266 1.5672C13.6809 1.5672 14.0197 1.60956 14.3393 1.69042C14.4664 1.72123 14.5896 1.61341 14.5703 1.48249L14.5241 1.11283C14.4856 0.49673 13.781 0 12.9377 0C12.0713 0 11.2434 0.519834 11.2434 1.16289L11.2819 1.77899C11.2935 1.91376 11.4282 1.99847 11.5476 1.94457Z" fill="#AE9579"/>
<path d="M18.7638 12.5376L18.7446 12.4259C18.7446 12.4182 18.7407 12.4105 18.7407 12.4028L18.0284 8.78324C17.936 7.94765 17.3276 7.21989 16.4419 6.76936L16.1031 4.13939C16.1031 3.02271 14.8401 2.11011 13.3268 2.11011C11.8135 2.11011 10.3733 3.015 10.3733 4.13554C10.3733 4.18944 10.3772 4.2472 10.3849 4.30111L10.4041 4.58606C10.1038 4.47824 9.76109 4.41663 9.39913 4.41663C9.03332 4.41663 8.69061 4.47824 8.38641 4.58991L8.40567 4.30111C8.41337 4.2472 8.41722 4.19329 8.41722 4.13554C8.41722 3.01885 6.97324 2.11011 5.46379 2.11011C3.9505 2.11011 2.68749 3.02271 2.68749 4.13939L2.34864 6.76936C1.46299 7.21603 0.854594 7.94765 0.762179 8.78324L0.049814 12.4028C0.049814 12.4105 0.0459633 12.4182 0.0459633 12.4259L0.0267102 12.5376C0.0113077 12.6531 -0.000244141 12.7686 -0.000244141 12.888C-0.000244141 14.6054 1.798 15.9993 4.01211 15.9993C6.22621 15.9993 8.02446 14.6054 8.02446 12.888V11.4633C8.42107 11.6481 8.8947 11.7521 9.39913 11.7521C9.90356 11.7521 10.3733 11.6481 10.77 11.4671V12.888C10.77 14.6054 12.5682 15.9993 14.7823 15.9993C16.9926 15.9993 18.7947 14.6054 18.7947 12.888C18.7908 12.7686 18.7792 12.6531 18.7638 12.5376ZM4.01211 14.8788C2.4449 14.8788 1.12029 13.9662 1.12029 12.888C1.12029 11.806 2.4449 10.8972 4.01211 10.8972C5.57931 10.8972 6.90392 11.8098 6.90392 12.888C6.90392 13.9662 5.57931 14.8788 4.01211 14.8788ZM9.39913 10.7663C8.74067 10.7663 8.20544 10.3928 8.20544 9.93457C8.20544 9.47635 8.74067 9.10284 9.39913 9.10284C10.0576 9.10284 10.5928 9.47635 10.5928 9.93457C10.5928 10.3928 10.0576 10.7663 9.39913 10.7663ZM14.7785 14.8788C13.2112 14.8788 11.8866 13.9662 11.8866 12.888C11.8866 11.806 13.2112 10.8972 14.7785 10.8972C16.3457 10.8972 17.6703 11.8098 17.6703 12.888C17.6703 13.9662 16.3457 14.8788 14.7785 14.8788Z" fill="#AE9579"/>
<path d="M4.44546 1.69048C4.76506 1.60962 5.10777 1.56726 5.45817 1.56726C6.07042 1.56726 6.69422 1.70203 7.23716 1.94462C7.35653 1.99853 7.4913 1.91382 7.49901 1.78289L7.53751 1.16679C7.53751 0.52374 6.70963 0.00390625 5.84324 0.00390625C4.99995 0.00390625 4.29914 0.500637 4.25678 1.11674L4.21057 1.4864C4.19517 1.61347 4.31454 1.72513 4.44546 1.69048Z" fill="#AE9579"/>
</svg>
